name Walk8.mot
datacolumns 19
datarows 22
range 1.35500000 1.46000000
endheader

                time	   L_ground_force_vx	   L_ground_force_vy	   L_ground_force_vz	   L_ground_force_px	   L_ground_force_py	   L_ground_force_pz	   R_ground_force_vx	   R_ground_force_vy	   R_ground_force_vz	   R_ground_force_px	   R_ground_force_py	   R_ground_force_pz	   L_ground_torque_x	   L_ground_torque_y	   L_ground_torque_z	   R_ground_torque_x	   R_ground_torque_y	   R_ground_torque_z	
          1.35500000	        -12.68700798	        139.61369073	        -13.98073165	         -0.07238884	          0.00000000	         -0.00724336	         -0.00000024	          0.00000193	          0.00000008	          0.00000000	          0.00000000	          0.00000000	          0.00000000	          0.11003774	          0.00000000	          0.00000000	         -0.00000003	          0.00000000	
          1.36000000	        -20.20857155	        195.53749383	        -18.44838519	         -0.16037107	          0.00000000	         -0.01760381	         -0.00000029	          0.00000224	          0.00000009	          0.00000000	          0.00000000	          0.00000000	          0.00000000	          0.14511363	          0.00000000	          0.00000000	         -0.00000003	          0.00000000	
          1.36500000	        -29.28525113	        252.90926238	        -22.84484157	         -0.23754888	          0.00000000	         -0.02676799	         -0.00000035	          0.00000245	          0.00000009	          0.00000000	          0.00000000	          0.00000000	          0.00000000	          0.18044517	          0.00000000	          0.00000000	         -0.00000003	          0.00000000	
          1.37000000	        -39.70977018	        308.99764480	        -26.72186071	         -0.30143543	          0.00000000	         -0.03449332	         -0.00000038	          0.00000247	          0.00000009	          0.00000000	          0.00000000	          0.00000000	          0.00000000	          0.21229527	          0.00000000	          0.00000000	         -0.00000002	          0.00000000	
          1.37500000	        -51.02323267	        362.04181268	        -29.60378882	         -0.35147869	          0.00000000	         -0.04076457	         -0.00000039	          0.00000220	          0.00000007	          0.00000000	          0.00000000	          0.00000000	          0.00000000	          0.23477966	          0.00000000	          0.00000000	         -0.00000000	          0.00000000	
          1.38000000	        -62.58321285	        411.05898288	        -31.11198325	         -0.38841554	          0.00000000	         -0.04570761	         -0.00000036	          0.00000151	          0.00000004	         -0.00000000	          0.00000000	         -0.00000000	          0.00000000	          0.24009650	          0.00000000	          0.00000000	          0.00000002	          0.00000000	
          1.38500000	        -73.74221756	        455.69213039	        -31.04133369	         -0.41375509	          0.00000000	         -0.04951602	         -0.00000026	          0.00000024	         -0.00000002	         -0.00000000	          0.00000000	         -0.00000000	          0.00000000	          0.22124933	          0.00000000	          0.00000000	          0.00000005	          0.00000000	
          1.39000000	        -84.06712616	        496.09708250	        -29.38826937	         -0.42938558	          0.00000000	         -0.05240077	         -0.00000008	         -0.00000177	         -0.00000011	         -0.00000000	          0.00000000	         -0.00000000	          0.00000000	          0.17514031	          0.00000000	          0.00000000	          0.00000010	          0.00000000	
          1.39500000	        -93.44842019	        532.72302580	        -26.32846069	         -0.43729721	          0.00000000	         -0.05455798	          0.00000021	         -0.00000468	         -0.00000024	         -0.00000000	          0.00000000	         -0.00000000	          0.00000000	          0.10454017	          0.00000000	          0.00000000	          0.00000016	          0.00000000	
          1.40000000	       -101.97962042	        566.01897410	        -22.17685656	         -0.43940469	          0.00000000	         -0.05615036	          0.00000064	         -0.00000864	         -0.00000041	         -0.00000000	          0.00000000	         -0.00000000	          0.00000000	          0.01804137	          0.00000000	          0.00000000	          0.00000023	          0.00000000	
          1.40500000	       -109.69992033	        596.23033306	        -17.35122377	         -0.43743964	          0.00000000	         -0.05730313	          0.00000123	         -0.00001375	         -0.00000063	         -0.00000000	          0.00000000	         -0.00000000	          0.00000000	         -0.07149675	          0.00000000	          0.00000000	          0.00000032	          0.00000000	
          1.41000000	       -116.43293203	        623.44451022	        -12.29391555	         -0.43288135	          0.00000000	         -0.05811260	          0.00000201	         -0.00002003	         -0.00000088	         -0.00000000	          0.00000000	         -0.00000000	          0.00000000	         -0.14953050	          0.00000000	          0.00000000	          0.00000041	          0.00000000	
          1.41500000	       -121.86362059	        647.77507949	         -7.35013997	         -0.42692139	          0.00000000	         -0.05865827	          0.00000296	         -0.00002735	         -0.00000117	         -0.00000000	          0.00000000	         -0.00000000	          0.00000000	         -0.20482099	          0.00000000	          0.00000000	          0.00000051	          0.00000000	
          1.42000000	       -125.75193025	        669.46780795	         -2.70585226	         -0.42045997	          0.00000000	         -0.05900890	          0.00000409	         -0.00003538	         -0.00000148	         -0.00000000	          0.00000000	         -0.00000001	          0.00000000	         -0.23360306	          0.00000000	          0.00000000	          0.00000060	          0.00000000	
          1.42500000	       -128.03472338	        688.82922717	          1.58819509	         -0.41412921	          0.00000000	         -0.05922465	          0.00000535	         -0.00004355	         -0.00000178	         -0.00000001	          0.00000000	         -0.00000001	          0.00000000	         -0.23969901	          0.00000000	          0.00000000	          0.00000066	          0.00000000	
          1.43000000	       -128.75713638	        706.13261034	          5.55368591	         -0.40833468	          0.00000000	         -0.05935533	          0.00000664	         -0.00005092	         -0.00000203	         -0.00000001	          0.00000000	         -0.00000001	          0.00000000	         -0.23115597	          0.00000000	          0.00000000	          0.00000068	          0.00000000	
          1.43500000	       -128.00063757	        721.60502537	          9.22372583	         -0.40330080	          0.00000000	         -0.05943997	          0.00000784	         -0.00005613	         -0.00000217	         -0.00000001	          0.00000000	         -0.00000001	          0.00000000	         -0.21639432	          0.00000000	          0.00000000	          0.00000062	          0.00000000	
          1.44000000	       -125.88899715	        735.43093746	         12.60502316	         -0.39911291	          0.00000000	         -0.05950807	          0.00000875	         -0.00005732	         -0.00000211	         -0.00000000	          0.00000000	         -0.00000000	          0.00000000	         -0.20115448	          0.00000000	          0.00000000	          0.00000046	          0.00000000	
          1.44500000	       -122.60218000	        747.73389792	         15.67918287	         -0.39575383	          0.00000000	         -0.05958048	          0.00000909	         -0.00005212	         -0.00000177	         -0.00000000	          0.00000000	         -0.00000000	          0.00000000	         -0.18817357	          0.00000000	          0.00000000	          0.00000014	          0.00000000	
          1.45000000	       -118.35362903	        758.56150884	         18.43292966	         -0.39313709	          0.00000000	         -0.05967266	          0.00000849	         -0.00003759	         -0.00000101	         -0.00000000	          0.00000000	          0.00000000	          0.00000000	         -0.17889861	          0.00000000	          0.00000000	         -0.00000037	          0.00000000	
          1.45500000	       -113.35853117	        767.89957852	         20.88402210	         -0.39113614	          0.00000000	         -0.05979687	          0.00000651	         -0.00001028	          0.00000030	          0.00000000	          0.00000000	          0.00000001	          0.00000000	         -0.17510015	          0.00000000	          0.00000000	         -0.00000112	          0.00000000	
          1.46000000	       -107.81586096	        775.69392179	         23.08168893	         -0.38960779	          0.00000000	         -0.05996199	          0.00000262	          0.00003357	          0.00000230	          0.00000001	          0.00000000	          0.00000002	          0.00000000	         -0.17902870	          0.00000000	          0.00000000	         -0.00000215	          0.00000000	
